<mxfile host="Electron" agent="Mozilla/5.0 (Windows NT 10.0; Win64; x64) AppleWebKit/537.36 (KHTML, like Gecko) draw.io/25.0.1 Chrome/128.0.6613.186 Electron/32.2.6 Safari/537.36" version="25.0.1">
  <diagram name="Page-1" id="CgngaO3UvxCJSmWE9XWh">
    <mxGraphModel dx="880" dy="423" grid="1" gridSize="10" guides="1" tooltips="1" connect="1" arrows="1" fold="1" page="1" pageScale="1" pageWidth="850" pageHeight="1100" math="0" shadow="0">
      <root>
        <mxCell id="0" />
        <mxCell id="1" parent="0" />
        <mxCell id="8uEcne9jjg7ob277AD_L-2" value="" style="group" vertex="1" connectable="0" parent="1">
          <mxGeometry x="190" y="120" width="50" height="40" as="geometry" />
        </mxCell>
        <mxCell id="8uEcne9jjg7ob277AD_L-3" value="" style="shape=partialRectangle;whiteSpace=wrap;html=1;bottom=1;right=1;left=1;top=0;fillColor=none;routingCenterX=-0.5;direction=north;" vertex="1" parent="8uEcne9jjg7ob277AD_L-2">
          <mxGeometry width="50" height="40" as="geometry" />
        </mxCell>
        <mxCell id="8uEcne9jjg7ob277AD_L-4" value="" style="endArrow=none;html=1;rounded=0;" edge="1" parent="8uEcne9jjg7ob277AD_L-2">
          <mxGeometry width="50" height="50" relative="1" as="geometry">
            <mxPoint x="10" y="35" as="sourcePoint" />
            <mxPoint x="10" y="5" as="targetPoint" />
          </mxGeometry>
        </mxCell>
        <mxCell id="8uEcne9jjg7ob277AD_L-5" value="" style="endArrow=none;html=1;rounded=0;" edge="1" parent="8uEcne9jjg7ob277AD_L-2">
          <mxGeometry width="50" height="50" relative="1" as="geometry">
            <mxPoint x="19.860000000000014" y="35" as="sourcePoint" />
            <mxPoint x="19.860000000000014" y="5" as="targetPoint" />
          </mxGeometry>
        </mxCell>
        <mxCell id="8uEcne9jjg7ob277AD_L-6" value="" style="endArrow=none;html=1;rounded=0;" edge="1" parent="8uEcne9jjg7ob277AD_L-2">
          <mxGeometry width="50" height="50" relative="1" as="geometry">
            <mxPoint x="30" y="35" as="sourcePoint" />
            <mxPoint x="30" y="5" as="targetPoint" />
          </mxGeometry>
        </mxCell>
        <mxCell id="8uEcne9jjg7ob277AD_L-7" value="" style="endArrow=none;html=1;rounded=0;" edge="1" parent="8uEcne9jjg7ob277AD_L-2">
          <mxGeometry width="50" height="50" relative="1" as="geometry">
            <mxPoint x="40" y="35" as="sourcePoint" />
            <mxPoint x="40" y="5" as="targetPoint" />
          </mxGeometry>
        </mxCell>
        <mxCell id="8uEcne9jjg7ob277AD_L-8" value="" style="endArrow=classic;html=1;rounded=0;entryX=0.5;entryY=0;entryDx=0;entryDy=0;" edge="1" parent="1" target="8uEcne9jjg7ob277AD_L-3">
          <mxGeometry width="50" height="50" relative="1" as="geometry">
            <mxPoint x="70" y="140" as="sourcePoint" />
            <mxPoint x="170" y="60" as="targetPoint" />
            <Array as="points">
              <mxPoint x="150" y="140" />
            </Array>
          </mxGeometry>
        </mxCell>
        <mxCell id="8uEcne9jjg7ob277AD_L-16" style="edgeStyle=orthogonalEdgeStyle;rounded=0;orthogonalLoop=1;jettySize=auto;html=1;exitX=1;exitY=0.5;exitDx=0;exitDy=0;entryX=0.5;entryY=0;entryDx=0;entryDy=0;" edge="1" parent="1" source="8uEcne9jjg7ob277AD_L-17" target="8uEcne9jjg7ob277AD_L-35">
          <mxGeometry relative="1" as="geometry">
            <mxPoint x="360" y="140" as="targetPoint" />
          </mxGeometry>
        </mxCell>
        <mxCell id="8uEcne9jjg7ob277AD_L-17" value="D1" style="ellipse;whiteSpace=wrap;html=1;aspect=fixed;" vertex="1" parent="1">
          <mxGeometry x="280" y="125" width="30" height="30" as="geometry" />
        </mxCell>
        <mxCell id="8uEcne9jjg7ob277AD_L-18" value="" style="endArrow=none;html=1;rounded=0;entryX=0;entryY=0.5;entryDx=0;entryDy=0;exitX=0.5;exitY=1;exitDx=0;exitDy=0;" edge="1" parent="1" source="8uEcne9jjg7ob277AD_L-3" target="8uEcne9jjg7ob277AD_L-17">
          <mxGeometry width="50" height="50" relative="1" as="geometry">
            <mxPoint x="250" y="140" as="sourcePoint" />
            <mxPoint x="380" y="80" as="targetPoint" />
          </mxGeometry>
        </mxCell>
        <mxCell id="8uEcne9jjg7ob277AD_L-23" value="&lt;font style=&quot;font-size: 11px;&quot;&gt;t=exp(10,25)&lt;/font&gt;" style="text;html=1;align=center;verticalAlign=middle;resizable=0;points=[];autosize=1;strokeColor=none;fillColor=none;" vertex="1" parent="1">
          <mxGeometry x="70" y="110" width="90" height="30" as="geometry" />
        </mxCell>
        <mxCell id="8uEcne9jjg7ob277AD_L-26" value="&lt;font style=&quot;font-size: 11px;&quot;&gt;max = inf&lt;/font&gt;" style="text;html=1;align=center;verticalAlign=middle;resizable=0;points=[];autosize=1;strokeColor=none;fillColor=none;" vertex="1" parent="1">
          <mxGeometry x="180" y="95" width="70" height="30" as="geometry" />
        </mxCell>
        <mxCell id="8uEcne9jjg7ob277AD_L-27" value="&lt;span style=&quot;font-size: 11px;&quot;&gt;t=erl(22, 242)&lt;/span&gt;" style="text;html=1;align=center;verticalAlign=middle;resizable=0;points=[];autosize=1;strokeColor=none;fillColor=none;" vertex="1" parent="1">
          <mxGeometry x="250" y="95" width="90" height="30" as="geometry" />
        </mxCell>
        <mxCell id="8uEcne9jjg7ob277AD_L-28" style="edgeStyle=orthogonalEdgeStyle;rounded=0;orthogonalLoop=1;jettySize=auto;html=1;exitX=1;exitY=0.5;exitDx=0;exitDy=0;entryX=0.5;entryY=0;entryDx=0;entryDy=0;" edge="1" parent="1" source="8uEcne9jjg7ob277AD_L-29" target="8uEcne9jjg7ob277AD_L-35">
          <mxGeometry relative="1" as="geometry">
            <mxPoint x="360" y="185" as="targetPoint" />
          </mxGeometry>
        </mxCell>
        <mxCell id="8uEcne9jjg7ob277AD_L-29" value="D2" style="ellipse;whiteSpace=wrap;html=1;aspect=fixed;" vertex="1" parent="1">
          <mxGeometry x="280" y="170" width="30" height="30" as="geometry" />
        </mxCell>
        <mxCell id="8uEcne9jjg7ob277AD_L-30" style="edgeStyle=orthogonalEdgeStyle;rounded=0;orthogonalLoop=1;jettySize=auto;html=1;exitX=1;exitY=0.5;exitDx=0;exitDy=0;entryX=0.5;entryY=0;entryDx=0;entryDy=0;" edge="1" parent="1" source="8uEcne9jjg7ob277AD_L-31" target="8uEcne9jjg7ob277AD_L-35">
          <mxGeometry relative="1" as="geometry">
            <mxPoint x="360" y="235" as="targetPoint" />
          </mxGeometry>
        </mxCell>
        <mxCell id="8uEcne9jjg7ob277AD_L-31" value="D3" style="ellipse;whiteSpace=wrap;html=1;aspect=fixed;" vertex="1" parent="1">
          <mxGeometry x="280" y="220" width="30" height="30" as="geometry" />
        </mxCell>
        <mxCell id="8uEcne9jjg7ob277AD_L-32" style="edgeStyle=orthogonalEdgeStyle;rounded=0;orthogonalLoop=1;jettySize=auto;html=1;exitX=0.5;exitY=1;exitDx=0;exitDy=0;entryX=0;entryY=0.5;entryDx=0;entryDy=0;endArrow=none;endFill=0;" edge="1" parent="1" source="8uEcne9jjg7ob277AD_L-3" target="8uEcne9jjg7ob277AD_L-31">
          <mxGeometry relative="1" as="geometry" />
        </mxCell>
        <mxCell id="8uEcne9jjg7ob277AD_L-33" style="edgeStyle=orthogonalEdgeStyle;rounded=0;orthogonalLoop=1;jettySize=auto;html=1;exitX=0.5;exitY=1;exitDx=0;exitDy=0;entryX=0;entryY=0.5;entryDx=0;entryDy=0;endArrow=none;endFill=0;" edge="1" parent="1" source="8uEcne9jjg7ob277AD_L-3" target="8uEcne9jjg7ob277AD_L-29">
          <mxGeometry relative="1" as="geometry" />
        </mxCell>
        <mxCell id="8uEcne9jjg7ob277AD_L-34" value="" style="group" vertex="1" connectable="0" parent="1">
          <mxGeometry x="355" y="120" width="50" height="40" as="geometry" />
        </mxCell>
        <mxCell id="8uEcne9jjg7ob277AD_L-35" value="" style="shape=partialRectangle;whiteSpace=wrap;html=1;bottom=1;right=1;left=1;top=0;fillColor=none;routingCenterX=-0.5;direction=north;" vertex="1" parent="8uEcne9jjg7ob277AD_L-34">
          <mxGeometry width="50" height="40" as="geometry" />
        </mxCell>
        <mxCell id="8uEcne9jjg7ob277AD_L-36" value="" style="endArrow=none;html=1;rounded=0;" edge="1" parent="8uEcne9jjg7ob277AD_L-34">
          <mxGeometry width="50" height="50" relative="1" as="geometry">
            <mxPoint x="10" y="35" as="sourcePoint" />
            <mxPoint x="10" y="5" as="targetPoint" />
          </mxGeometry>
        </mxCell>
        <mxCell id="8uEcne9jjg7ob277AD_L-37" value="" style="endArrow=none;html=1;rounded=0;" edge="1" parent="8uEcne9jjg7ob277AD_L-34">
          <mxGeometry width="50" height="50" relative="1" as="geometry">
            <mxPoint x="19.860000000000014" y="35" as="sourcePoint" />
            <mxPoint x="19.860000000000014" y="5" as="targetPoint" />
          </mxGeometry>
        </mxCell>
        <mxCell id="8uEcne9jjg7ob277AD_L-38" value="" style="endArrow=none;html=1;rounded=0;" edge="1" parent="8uEcne9jjg7ob277AD_L-34">
          <mxGeometry width="50" height="50" relative="1" as="geometry">
            <mxPoint x="30" y="35" as="sourcePoint" />
            <mxPoint x="30" y="5" as="targetPoint" />
          </mxGeometry>
        </mxCell>
        <mxCell id="8uEcne9jjg7ob277AD_L-39" value="" style="endArrow=none;html=1;rounded=0;" edge="1" parent="8uEcne9jjg7ob277AD_L-34">
          <mxGeometry width="50" height="50" relative="1" as="geometry">
            <mxPoint x="40" y="35" as="sourcePoint" />
            <mxPoint x="40" y="5" as="targetPoint" />
          </mxGeometry>
        </mxCell>
        <mxCell id="8uEcne9jjg7ob277AD_L-40" value="&lt;font style=&quot;font-size: 11px;&quot;&gt;max = inf&lt;/font&gt;" style="text;html=1;align=center;verticalAlign=middle;resizable=0;points=[];autosize=1;strokeColor=none;fillColor=none;" vertex="1" parent="1">
          <mxGeometry x="345" y="95" width="70" height="30" as="geometry" />
        </mxCell>
        <mxCell id="8uEcne9jjg7ob277AD_L-44" style="edgeStyle=orthogonalEdgeStyle;rounded=0;orthogonalLoop=1;jettySize=auto;html=1;exitX=1;exitY=0.5;exitDx=0;exitDy=0;" edge="1" parent="1" source="8uEcne9jjg7ob277AD_L-42">
          <mxGeometry relative="1" as="geometry">
            <mxPoint x="550" y="139.75862068965523" as="targetPoint" />
          </mxGeometry>
        </mxCell>
        <mxCell id="8uEcne9jjg7ob277AD_L-45" style="edgeStyle=orthogonalEdgeStyle;rounded=0;orthogonalLoop=1;jettySize=auto;html=1;exitX=1;exitY=0.5;exitDx=0;exitDy=0;entryX=0.5;entryY=0;entryDx=0;entryDy=0;" edge="1" parent="1" source="8uEcne9jjg7ob277AD_L-42" target="8uEcne9jjg7ob277AD_L-3">
          <mxGeometry relative="1" as="geometry">
            <Array as="points">
              <mxPoint x="490" y="140" />
              <mxPoint x="490" y="260" />
              <mxPoint x="170" y="260" />
              <mxPoint x="170" y="140" />
            </Array>
          </mxGeometry>
        </mxCell>
        <mxCell id="8uEcne9jjg7ob277AD_L-49" value="&lt;span style=&quot;line-height: 160%;&quot;&gt;&lt;font face=&quot;Helvetica&quot; style=&quot;font-size: 11px;&quot;&gt;pₙ = 0.15ⁿ&lt;/font&gt;&lt;/span&gt;" style="edgeLabel;html=1;align=center;verticalAlign=middle;resizable=0;points=[];" vertex="1" connectable="0" parent="8uEcne9jjg7ob277AD_L-45">
          <mxGeometry x="-0.6322" y="2" relative="1" as="geometry">
            <mxPoint x="-2" y="-50" as="offset" />
          </mxGeometry>
        </mxCell>
        <mxCell id="8uEcne9jjg7ob277AD_L-42" value="C1" style="ellipse;whiteSpace=wrap;html=1;aspect=fixed;" vertex="1" parent="1">
          <mxGeometry x="440" y="125" width="30" height="30" as="geometry" />
        </mxCell>
        <mxCell id="8uEcne9jjg7ob277AD_L-43" style="edgeStyle=orthogonalEdgeStyle;rounded=0;orthogonalLoop=1;jettySize=auto;html=1;exitX=0.5;exitY=1;exitDx=0;exitDy=0;endArrow=none;endFill=0;" edge="1" parent="1" source="8uEcne9jjg7ob277AD_L-35" target="8uEcne9jjg7ob277AD_L-42">
          <mxGeometry relative="1" as="geometry" />
        </mxCell>
        <mxCell id="8uEcne9jjg7ob277AD_L-46" value="&lt;font style=&quot;font-size: 11px;&quot;&gt;N1&lt;/font&gt;" style="text;html=1;align=center;verticalAlign=middle;resizable=0;points=[];autosize=1;strokeColor=none;fillColor=none;" vertex="1" parent="1">
          <mxGeometry x="540" y="130" width="40" height="30" as="geometry" />
        </mxCell>
        <mxCell id="8uEcne9jjg7ob277AD_L-47" value="&lt;font style=&quot;font-size: 11px;&quot;&gt;t=6&lt;/font&gt;" style="text;html=1;align=center;verticalAlign=middle;resizable=0;points=[];autosize=1;strokeColor=none;fillColor=none;" vertex="1" parent="1">
          <mxGeometry x="435" y="100" width="40" height="30" as="geometry" />
        </mxCell>
      </root>
    </mxGraphModel>
  </diagram>
</mxfile>
